<?xml version="1.0" standalone="no"?>
<!DOCTYPE svg PUBLIC "-//W3C//DTD SVG 20010904//EN"
 "http://www.w3.org/TR/2001/REC-SVG-20010904/DTD/svg10.dtd">
<svg version="1.0" xmlns="http://www.w3.org/2000/svg"
 width="300.000000pt" height="300.000000pt" viewBox="0 0 300.000000 300.000000"
 preserveAspectRatio="xMidYMid meet">
<metadata>
Created by potrace 1.11, written by Peter Selinger 2001-2013
</metadata>
<g transform="translate(0.000000,300.000000) scale(0.100000,-0.100000)"
fill="#000000" stroke="none">
<path d="M1089 2756 c-2 -2 -25 -7 -50 -10 -379 -50 -733 -311 -912 -671 -90
-181 -126 -342 -125 -554 3 -459 267 -880 683 -1089 62 -32 185 -76 191 -69 2
2 -22 14 -54 27 -334 135 -586 442 -664 810 -19 93 -27 309 -13 370 3 14 7 41
10 61 7 56 61 214 100 291 159 317 470 545 820 603 68 11 256 13 328 3 357
-49 687 -287 851 -616 104 -207 136 -464 91 -721 -27 -152 -149 -395 -257
-511 -71 -76 -80 -92 -19 -35 177 169 314 422 362 670 14 74 19 308 7 387 -11
81 -48 216 -79 291 -165 401 -516 681 -943 754 -37 6 -322 14 -327 9z"/>
<path d="M1258 791 c-60 -20 -112 -54 -143 -95 -31 -40 -54 -117 -48 -161 6
-42 39 -107 69 -136 l26 -24 -26 45 c-74 129 22 274 189 288 51 4 79 0 132
-18 110 -37 180 -81 398 -250 126 -97 130 -99 207 -140 127 -66 282 -77 392
-27 68 31 127 76 158 120 l23 32 -34 -28 c-148 -123 -340 -118 -536 15 -53 36
-201 152 -215 168 -10 12 -126 98 -166 122 -57 36 -173 84 -225 94 -71 12
-154 11 -201 -5z"/>
<path d="M2777 774 c-59 -14 -111 -43 -135 -76 -13 -18 -15 -17 -45 4 -40 28
-135 36 -192 15 l-40 -15 40 1 c88 2 202 -57 220 -113 7 -21 25 -28 25 -10 0
22 56 93 94 120 45 30 109 55 170 64 47 8 59 16 25 17 -13 0 -42 2 -64 3 -22
2 -66 -3 -98 -10z"/>
<path d="M905 350 c11 -5 27 -9 35 -9 9 0 8 4 -5 9 -11 5 -27 9 -35 9 -9 0 -8
-4 5 -9z"/>
</g>
</svg>
